<svg height="512pt" viewBox="-34 0 512 512.00224" width="512pt" xmlns="http://www.w3.org/2000/svg"><path d="m319.84375 392.589844c-2.738281-3.183594-7.539062-3.542969-10.722656-.804688-3.183594 2.738282-3.542969 7.539063-.804688 10.722656l28.003906 32.558594-55.550781-19.683594c-2.5625-.910156-5.421875-.378906-7.488281 1.390626l-48.316406 41.386718-48.320313-41.386718c-2.066406-1.769532-4.925781-2.300782-7.488281-1.390626l-55.535156 19.679688 91.234375-106.070312h40.226562l45.953125 53.421874c2.734375 3.183594 7.535156 3.546876 10.722656.808594 3.183594-2.738281 3.542969-7.542968.804688-10.726562l-45.980469-53.457032 7.929688-55.167968h11.992187c3.144532 0 5.964844-1.9375 7.097656-4.871094 0 0 8.007813-20.796875 8.007813-20.800781.328125-.84375.511719-1.761719.511719-2.722657v-83.828124c0-2.015626-.800782-3.953126-2.226563-5.378907l-27.734375-27.734375c-1.105468-1.105468-2.496094-1.800781-3.960937-2.074218 7.164062-8.003907 11.527343-18.5625 11.527343-30.125v-28.5c3.90625-3.46875 6.921876-7.636719 9.015626-12.484376 7.988281-18.5-1.105469-39.875-1.496094-40.773437-1.03125-2.371094-3.191406-4.058594-5.742188-4.476563-2.5625-.417968-5.140625.484376-6.875 2.402344-6.636718 7.339844-19.003906 6.074219-33.320312 4.605469-3.726563-.382813-7.582032-.777344-11.414063-1.011719-11.886719-.71875-22.820312 5.097656-28.824219 14.890625-4.109374.097657-8.121093 1.429688-11.578124 3.925781-5.324219 3.839844-8.445313 9.800782-8.570313 16.355469-.253906 13.132813 5.90625 26.621094 8.371094 31.46875v13.597657c0 11.308593 4.121093 21.980468 11.65625 30.304687-1.175781.355469-2.277344.984375-3.1875 1.894531l-27.730469 27.734375c-1.429688 1.425781-2.230469 3.359375-2.230469 5.375v16.421875c0 4.199219 3.40625 7.601563 7.605469 7.601563s7.605469-3.402344 7.605469-7.601563v-13.273437l19.621093-19.621094 24.726563 30.75v58.050781h-20.742187v-43.992187c0-4.199219-3.40625-7.601563-7.605469-7.601563s-7.605469 3.402344-7.605469 7.601563v47.890625h-8.394531v-29.386719c0-4.199219-3.40625-7.605469-7.605469-7.605469s-7.605469 3.40625-7.605469 7.605469v36.988281c0 .949219.503907 2.714844.507813 2.730469l8.011718 20.792969c1.128907 2.9375 3.949219 4.871094 7.09375 4.871094h11.996094l7.929688 55.1875-155.15625 180.386718c-2.738282 3.179688-2.375 7.980469.808594 10.722656 1.433593 1.234376 3.199218 1.839844 4.953124 1.839844 2.136719 0 4.265626-.898437 5.765626-2.648437l43.941406-51.082031 76.4375-27.089844 49.925781 42.765625c1.421875 1.21875 3.183594 1.828125 4.945313 1.828125 1.761718 0 3.523437-.609375 4.945312-1.828125l49.925781-42.765625 76.449219 27.09375 43.9375 51.078125c1.503906 1.75 3.628906 2.648437 5.765625 2.648437 1.757813 0 3.523437-.605468 4.957031-1.839844 3.183594-2.738281 3.542969-7.542968.804688-10.722656zm-113.351562-326.070313c.386718-.640625.738281-1.28125 1.066406-1.910156 9.949218 3.804687 27.902344 8.324219 46.960937 1.78125v19.945313c0 16.550781-13.464843 30.015624-30.011719 30.015624-8.015624 0-15.550781-3.121093-21.222656-8.789062-5.664062-5.671875-8.789062-13.207031-8.789062-21.226562v-9.269532c4.78125-1.828125 8.910156-5.414062 11.996094-10.546875zm34.1875 65.039063-8.113282 10.089844v-10.089844zm-23.324219 182.222656h-9.410157l-10.722656-74.601562h20.132813zm15.207031 0v-74.601562h20.132812l-10.722656 74.601562zm34.132812-65.121094.804688-5.582031h5.933594l-2.148438 5.582031zm10.21875-20.789062h-8.398437v-47.890625c0-4.199219-3.402344-7.601563-7.605469-7.601563-4.199218 0-7.601562 3.402344-7.601562 7.601563v43.992187h-20.742188v-58.058594l24.722656-30.742187 19.625 19.625zm-88.527343-190.625c.953125-.6875 2.066406-1.042969 3.203125-1.042969.546875 0 1.101562.082031 1.644531.25 3.855469 1.199219 7.976563-.824219 9.382813-4.605469 2.519531-6.761718 9.097656-11.011718 16.351562-10.566406 3.519531.214844 7.214844.59375 10.789062.960938 12.074219 1.234374 25.359376 2.59375 36.222657-2.304688 1.101562 5.6875 1.546875 13.066406-1.226563 19.441406-2.496094 5.726563-7.246094 9.789063-14.53125 12.414063-21.738281 7.828125-42.929687-3.933594-43.117187-4.039063-2.101563-1.207031-4.65625-1.320312-6.867188-.339844-2.214843.980469-3.835937 2.976563-4.359375 5.34375-.019531.078126-1.390625 6.121094-4.957031 9-2.3125-5.40625-4.929687-13.285156-4.796875-20.191406.03125-1.730468.855469-3.304687 2.261719-4.320312zm20.851562 94.3125h8.121094v10.09375zm-30.605469 117.101562-2.152343-5.582031h5.9375l.804687 5.582031zm0 0"/><path d="m409.195312 124.546875c-8.503906-13.144531-22.984374-21.121094-38.898437-21.121094-25.574219 0-46.382813 20.808594-46.382813 46.386719 0 25.574219 20.808594 46.378906 46.382813 46.378906h38.777344c19.753906 0 35.824219-16.070312 35.824219-35.824218 0-19.710938-16.003907-35.757813-35.703126-35.820313zm-.121093 56.4375h-38.777344c-17.1875 0-31.171875-13.984375-31.171875-31.175781 0-17.1875 13.984375-31.175782 31.171875-31.175782 11.867187 0 22.546875 6.601563 27.875 17.226563 1.472656 2.929687 4.660156 4.585937 7.894531 4.113281 1.007813-.148437 2.019532-.21875 3.007813-.21875 11.367187 0 20.617187 9.246094 20.617187 20.613282 0 11.371093-9.25 20.617187-20.617187 20.617187zm0 0"/><path d="m85.164062 272.230469c19.75 0 35.820313-16.074219 35.820313-35.824219 0-19.710938-16.003906-35.757812-35.699219-35.824219-8.507812-13.144531-22.988281-21.117187-38.902344-21.117187-25.574218 0-46.382812 20.808594-46.382812 46.382812 0 25.574219 20.808594 46.382813 46.382812 46.382813zm-69.953124-46.386719c0-17.1875 13.984374-31.171875 31.171874-31.171875 11.867188 0 22.550782 6.597656 27.878907 17.222656 1.46875 2.929688 4.648437 4.585938 7.894531 4.117188 1.003906-.148438 2.015625-.222657 3.007812-.222657 11.367188 0 20.613282 9.25 20.613282 20.613282 0 11.367187-9.25 20.617187-20.613282 20.617187h-38.78125c-17.1875 0-31.171874-13.984375-31.171874-31.175781zm0 0"/></svg>