<?xml version="1.0" encoding="UTF-8"?>
<!-- Generator: Adobe Illustrator 24.1.1, SVG Export Plug-In . SVG Version: 6.00 Build 0)  -->
<svg version="1.2" baseProfile="tiny" id="Capa_1" xmlns="http://www.w3.org/2000/svg" xmlns:xlink="http://www.w3.org/1999/xlink" x="0px" y="0px" viewBox="0 0 512 512" xml:space="preserve">
<g>
	<g>
		<path d="M488,5.9c-5.1-4.5-11.8-6.6-18.5-5.7l-64.1,8c-12.7,1.6-22,13.5-20.4,26.3c1.6,12.9,13.4,22.1,26.3,20.4l5.2-0.7    c-78.7,91.3-172.3,138.4-238.4,162.1c-82.4,29.6-146.6,32.1-147.2,32.1c-13,0.4-23.2,11.3-22.8,24.2c0.4,12.8,10.7,22.8,23.5,22.8    c0.2,0,0.5,0,0.7,0c2.9-0.1,70.9-2.5,160.5-34.4c50.4-18,97.8-41.8,140.9-70.8c3.4-2.3,4.4-7,2-10.4c-2.3-3.4-7-4.4-10.4-2    c-42.1,28.3-88.3,51.6-137.5,69.1c-87.4,31.1-153.1,33.5-155.9,33.6l-0.3,0c-4.6,0-8.4-3.6-8.5-8.3c-0.1-4.7,3.6-8.6,8.3-8.8    c0.7,0,66.7-2.4,151.8-33C254.5,205,357,152.7,440.3,49.2c4.1-5.2-0.2-13-6.8-12.2l-24.1,3c-4.2,0.5-8.2-2.2-9.3-6.3    c-1.3-4.9,2.2-10,7.2-10.6l64.1-8c5-0.6,9.6,3.4,9.6,8.5v64.1c0,4.7-3.8,8.5-8.5,8.5s-8.5-3.8-8.5-8.5V68.2c0-3.1-2-5.9-4.9-7    c-3-1.1-6.5-0.2-8.5,2.3c-28.1,34.4-60,65.5-95,92.5c-3.3,2.5-3.9,7.3-1.4,10.5s7.3,3.9,10.5,1.4c30.5-23.5,58.7-50.1,84.1-79.1    c0.6,12.5,10.9,22.5,23.5,22.5c13,0,23.5-10.6,23.5-23.5V23.5C496,16.8,493.1,10.4,488,5.9z"/>
	</g>
</g>
<path d="M7.5,510.7h497.1c4.1,0,7.5-3.3,7.5-7.5l0,0c0-4.1-3.3-7.5-7.5-7.5H7.5c-4.1,0-7.5,3.3-7.5,7.5h0  C0,507.4,3.3,510.7,7.5,510.7z"/>
<path d="M33.5,496V384.2h65.1V496h15V377.1c0-3.9-3.4-7.1-7.5-7.1H26c-4.2,0-7.5,3.2-7.5,7.1V496H33.5z"/>
<path d="M160,496V345h65.1V496h15V337.5c0-4.2-3.4-7.5-7.5-7.5h-80.2c-4.2,0-7.5,3.4-7.5,7.5V496H160z"/>
<path d="M286.5,295.6h65.1V496h15V288.1c0-4.2-3.4-7.5-7.5-7.5H279c-4.2,0-7.5,3.4-7.5,7.5V496h15V295.6z"/>
<path d="M413.1,207.4h65.1V496h15V199.9c0-4.1-3.4-7.5-7.5-7.5h-80.2c-4.2,0-7.5,3.4-7.5,7.5V496h15V207.4z"/>
</svg>