<svg id="Capa_1" enable-background="new 0 0 512 512" height="512" viewBox="0 0 512 512" width="512" xmlns="http://www.w3.org/2000/svg"><g><path d="m382.707 340.434c0 6.105 4.967 11.073 11.071 11.073h52.413c6.104 0 11.071-4.968 11.071-11.073v-35.828l20.791-16.759c3.225-2.6 3.731-7.321 1.132-10.546-2.598-3.224-7.32-3.733-10.546-1.132l-11.649 9.39c-1.104-4.936-5.523-8.64-10.799-8.64h-52.413c-6.104 0-11.071 4.955-11.071 11.045zm15-48.515h44.556v5.512l-16.626 13.402-4.93-4.976c-2.917-2.944-7.666-2.964-10.606-.05-2.943 2.916-2.965 7.664-.05 10.606l9.694 9.784c1.459 1.473 3.391 2.222 5.33 2.222 1.659 0 3.324-.548 4.705-1.661l12.482-10.062v19.81h-44.556v-44.587z"/><path d="m493.218 22.967h-65.775v-4.44c-.001-8.562-6.976-15.527-15.551-15.527h-77.726c-8.575 0-15.551 6.965-15.551 15.526v4.44h-125.259v-4.44c0-8.561-6.962-15.526-15.522-15.526h-77.726c-8.575 0-15.551 6.965-15.551 15.526v4.44h-65.803c-10.341.001-18.754 8.417-18.754 18.761v90.162 194.165c0 4.143 3.357 7.5 7.5 7.5s7.5-3.357 7.5-7.5v-186.665h223.298c4.143 0 7.5-3.357 7.5-7.5s-3.357-7.5-7.5-7.5h-223.298v-82.662c0-2.038 1.719-3.76 3.754-3.76h65.804v26.08c0 8.577 6.976 15.555 15.551 15.555h77.726c8.56 0 15.522-6.978 15.522-15.555v-26.08h125.259v26.08c0 8.577 6.976 15.555 15.551 15.555h77.726c8.575 0 15.551-6.978 15.551-15.555v-26.08h65.775c2.05 0 3.782 1.722 3.782 3.76v82.664l-223.866.055c-4.142.001-7.499 3.359-7.498 7.502.001 4.142 3.359 7.499 7.502 7.498l223.861-.055v350.708c0 2.115-1.784 3.901-3.896 3.901h-474.237c-2.133 0-3.867-1.75-3.867-3.901v-129.387c0-4.143-3.357-7.5-7.5-7.5s-7.5 3.357-7.5 7.5v129.387c0 10.422 8.464 18.901 18.867 18.901h474.237c10.419 0 18.896-8.479 18.896-18.901v-358.21-90.162c0-10.344-8.426-18.76-18.782-18.76zm-314.862 41.08c0 .29-.249.555-.522.555h-77.726c-.278 0-.551-.274-.551-.555v-45.521c0-.275.263-.526.551-.526h77.726c.278 0 .522.246.522.526zm234.086 0c0 .28-.272.555-.551.555h-77.726c-.283 0-.551-.27-.551-.555v-45.521c0-.275.263-.526.551-.526h77.726c.288 0 .551.251.551.526z"/><path d="m71.818 244.611h52.413c6.104 0 11.071-4.955 11.071-11.046v-52.469c0-6.091-4.967-11.046-11.071-11.046h-52.413c-6.104 0-11.071 4.955-11.071 11.046v52.469c0 6.091 4.967 11.046 11.071 11.046zm3.929-59.56h44.556v44.561h-44.556z"/><path d="m179.139 244.611h52.412c6.105 0 11.072-4.955 11.072-11.046v-52.469c0-6.091-4.967-11.046-11.072-11.046h-52.412c-6.105 0-11.072 4.955-11.072 11.046v52.469c-.001 6.091 4.966 11.046 11.072 11.046zm3.927-59.56h44.557v44.561h-44.557z"/><path d="m286.458 244.611h52.413c6.104 0 11.071-4.955 11.071-11.046v-52.469c0-6.091-4.967-11.046-11.071-11.046h-52.413c-6.104 0-11.071 4.955-11.071 11.046v52.469c0 6.091 4.967 11.046 11.071 11.046zm3.929-59.56h44.556v44.561h-44.556z"/><path d="m60.747 340.434c0 6.105 4.967 11.073 11.071 11.073h52.413c6.104 0 11.071-4.968 11.071-11.073v-52.47c0-6.09-4.967-11.045-11.071-11.045h-52.413c-6.104 0-11.071 4.955-11.071 11.045zm15-48.515h44.556v44.588h-44.556z"/><path d="m168.066 340.434c0 6.105 4.967 11.073 11.072 11.073h52.412c6.105 0 11.072-4.968 11.072-11.073v-52.47c0-6.09-4.967-11.045-11.072-11.045h-52.412c-6.105 0-11.072 4.955-11.072 11.045zm15-48.515h44.557v44.588h-44.557z"/><path d="m275.387 340.434c0 6.105 4.967 11.073 11.071 11.073h52.413c6.104 0 11.071-4.968 11.071-11.073v-52.47c0-6.09-4.967-11.045-11.071-11.045h-52.413c-6.104 0-11.071 4.955-11.071 11.045zm15-48.515h44.556v44.588h-44.556z"/><path d="m60.747 447.301c0 6.105 4.967 11.073 11.071 11.073h52.413c6.104 0 11.071-4.968 11.071-11.073v-52.441c0-6.105-4.967-11.073-11.071-11.073h-52.413c-6.104 0-11.071 4.968-11.071 11.073zm15-48.515h44.556v44.588h-44.556z"/><path d="m168.066 447.301c0 6.105 4.967 11.073 11.072 11.073h52.412c6.105 0 11.072-4.968 11.072-11.073v-52.441c0-6.105-4.967-11.073-11.072-11.073h-52.412c-6.105 0-11.072 4.968-11.072 11.073zm15-48.515h44.557v44.588h-44.557z"/><path d="m275.387 447.301c0 6.105 4.967 11.073 11.071 11.073h52.413c6.104 0 11.071-4.968 11.071-11.073v-52.441c0-6.105-4.967-11.073-11.071-11.073h-52.413c-6.104 0-11.071 4.968-11.071 11.073zm15-48.515h44.556v44.588h-44.556z"/><path d="m393.778 244.611h52.413c6.104 0 11.071-4.955 11.071-11.046v-52.469c0-6.091-4.967-11.046-11.071-11.046h-52.413c-6.104 0-11.071 4.955-11.071 11.046v52.469c0 6.091 4.967 11.046 11.071 11.046zm3.929-59.56h44.556v44.561h-44.556z"/><path d="m382.707 447.301c0 6.105 4.967 11.073 11.071 11.073h52.413c6.104 0 11.071-4.968 11.071-11.073v-52.441c0-6.105-4.967-11.073-11.071-11.073h-52.413c-6.104 0-11.071 4.968-11.071 11.073zm15-48.515h44.556v44.588h-44.556z"/></g></svg>