<?xml version="1.0" encoding="iso-8859-1"?>
<!-- Generator: Adobe Illustrator 19.0.0, SVG Export Plug-In . SVG Version: 6.00 Build 0)  -->
<svg version="1.1" id="Capa_1" xmlns="http://www.w3.org/2000/svg" xmlns:xlink="http://www.w3.org/1999/xlink" x="0px" y="0px"
	 viewBox="0 0 496 496" style="enable-background:new 0 0 496 496;" xml:space="preserve">
<g>
	<g>
		<g>
			<path d="M420.696,105.97c-46.276-44.9-108.22-70.012-172.699-70.011C111.03,35.961-0.002,146.996,0,283.963
				c0.001,64.913,25.453,127.239,70.893,173.597c3.048,3.199,8.112,3.321,11.31,0.273c3.199-3.048,3.321-8.112,0.273-11.31
				c-0.052-0.055-0.106-0.109-0.16-0.163C-7.375,354.857-5.907,207.97,85.595,118.278s238.389-88.224,328.081,3.279
				c42.51,43.368,66.32,101.675,66.32,162.402c0.13,60.343-23.382,118.336-65.496,161.552c-3.077,3.172-3,8.239,0.172,11.316
				c3.172,3.077,8.239,3,11.316-0.172C521.366,358.355,518.996,201.348,420.696,105.97z"/>
			<path d="M258.702,253.782c-3.438-1.215-7.059-1.831-10.705-1.823c-7.657,0.031-15.044,2.83-20.8,7.88l-53.544-53.536
				c-3.178-3.069-8.243-2.981-11.312,0.197c-2.994,3.1-2.994,8.015,0,11.115l55.632,55.632
				c-5.872,16.622,2.843,34.857,19.465,40.729c16.622,5.872,34.857-2.843,40.729-19.465
				C284.039,277.889,275.324,259.654,258.702,253.782z M247.997,299.959c-8.837,0-16-7.163-16-16s7.163-16,16-16s16,7.163,16,16
				S256.833,299.959,247.997,299.959z"/>
			<path d="M255.997,99.959v-32c0-4.418-3.582-8-8-8s-8,3.582-8,8v32c0,4.418,3.582,8,8,8S255.997,104.377,255.997,99.959z"/>
			<path d="M31.997,275.959c-4.418,0-8,3.582-8,8s3.582,8,8,8h32c4.418,0,8-3.582,8-8s-3.582-8-8-8H31.997z"/>
			<path d="M463.997,291.959c4.418,0,8-3.582,8-8s-3.582-8-8-8h-32c-4.418,0-8,3.582-8,8s3.582,8,8,8H463.997z"/>
			<path d="M120.965,145.615l-22.624-22.624c-3.069-3.178-8.134-3.266-11.312-0.197c-3.178,3.069-3.266,8.134-0.197,11.312
				c0.064,0.067,0.13,0.132,0.197,0.197l22.624,22.624c3.069,3.178,8.134,3.266,11.312,0.197c3.178-3.069,3.266-8.134,0.197-11.312
				C121.097,145.745,121.031,145.68,120.965,145.615z"/>
			<path d="M397.849,122.795c-0.067,0.064-0.132,0.13-0.196,0.196l-22.624,22.624c-3.178,3.07-3.266,8.134-0.196,11.312
				c3.07,3.178,8.134,3.266,11.312,0.196c0.067-0.064,0.132-0.13,0.196-0.196l22.624-22.624c3.178-3.07,3.266-8.134,0.196-11.312
				C406.091,119.813,401.027,119.725,397.849,122.795z"/>
			<path d="M386.341,410.991c-3.178-3.07-8.242-2.982-11.312,0.196c-2.995,3.1-2.995,8.016,0,11.116l22.624,22.624
				c3.178,3.07,8.242,2.982,11.312-0.196c2.995-3.1,2.995-8.016,0-11.116L386.341,410.991z"/>
			<path d="M109.653,410.991l-22.624,22.624c-3.178,3.069-3.266,8.134-0.196,11.312c3.069,3.178,8.134,3.266,11.312,0.196
				c0.067-0.064,0.132-0.13,0.196-0.196l22.624-22.624c3.069-3.178,2.982-8.242-0.196-11.312
				C117.668,407.997,112.753,407.997,109.653,410.991z"/>
		</g>
	</g>
</g>
<g>
</g>
<g>
</g>
<g>
</g>
<g>
</g>
<g>
</g>
<g>
</g>
<g>
</g>
<g>
</g>
<g>
</g>
<g>
</g>
<g>
</g>
<g>
</g>
<g>
</g>
<g>
</g>
<g>
</g>
</svg>
