<?xml version="1.0"?>
<svg xmlns="http://www.w3.org/2000/svg" width="512" height="512" viewBox="0 0 512 512"><g><path d="M431.46,192.74c-.03-.04-.06-.07-.09-.11s-.07-.06-.11-.09a247.988,247.988,0,0,0-350.52,0c-.04.03-.07.06-.11.09s-.06.07-.09.11A246.355,246.355,0,0,0,8,368a8,8,0,0,0,8,8H80a8,8,0,0,0,8-8c0-92.64,75.36-168,168-168s168,75.36,168,168a8,8,0,0,0,8,8h64a8,8,0,0,0,8-8A246.355,246.355,0,0,0,431.46,192.74ZM72.17,360H24.13A230.228,230.228,0,0,1,86.4,209.71l34.03,34.03A183.3,183.3,0,0,0,72.17,360ZM248,184.18a183.359,183.359,0,0,0-116.27,48.24L97.71,198.4A230.208,230.208,0,0,1,248,136.15Zm16,0V136.15A230.208,230.208,0,0,1,414.29,198.4l-34.02,34.02A183.359,183.359,0,0,0,264,184.18ZM439.83,360a183.3,183.3,0,0,0-48.26-116.26l34.03-34.03A230.228,230.228,0,0,1,487.87,360Z"/><path d="M264,337.013V272a8,8,0,0,0-16,0v65.013a32,32,0,1,0,16,0ZM256,384a16,16,0,1,1,16-16A16.019,16.019,0,0,1,256,384Z"/></g></svg>
