<svg height="512pt" viewBox="0 -96 512.00248 512" width="512pt" xmlns="http://www.w3.org/2000/svg"><path d="m11.972656 262.828125h172.765625c7.226563 27.800781 29.328125 49.238281 55.933594 56.300781 4.003906 1.058594 8.109375-1.324218 9.171875-5.328125 1.066406-4.003906-1.320312-8.109375-5.324219-9.171875-10.828125-2.875-20.441406-8.457031-28.570312-16.585937-33.257813-33.253907-20.144531-89.511719 23.644531-105.074219 2.0625-.734375-5.851562 1.742188 117.945312-36.515625-2.300781 7.429687-34.332031 111.078125-35.652343 115.34375-6.710938 21.71875-23.921875 37.847656-46.035157 43.152344-4.027343.964843-6.511718 5.011719-5.546874 9.039062.964843 4.027344 5.011718 6.511719 9.042968 5.546875 27.320313-6.550781 48.582032-26.476562 56.875-53.304687l1.050782-3.402344h162.753906c6.710937 0 12.113281-5.503906 11.972656-12.253906-2.96875-138.992188-116.414062-250.574219-256-250.574219-136.707031 0-252.996094 108.835938-255.99609375 250.574219-.14453125 6.722656 5.23828175 12.253906 11.96874975 12.253906zm484.941406-15h-52.632812c-1.96875-45.542969-20.167969-87.566406-49.816406-119.621094 25.996094-25.996093 22.070312-22.070312 37.214844-37.214843 40.210937 42.734374 63.246093 98.039062 65.234374 156.835937zm-233.414062-232.714844c59.066406 1.796875 114.503906 24.761719 157.566406 65.277344l-37.207031 37.207031c-33.023437-30.550781-75.394531-48.117187-120.359375-49.855468zm-7.527344 67.484375h.046875c93.429688 0 168.945313 73.398438 173.238281 165.230469h-87.351562l30.617188-99.0625c1.519531-4.917969.199218-10.230469-3.4375-13.867187-3.636719-3.636719-8.949219-4.953126-13.863282-3.433594-127.988281 39.554687-122.347656 37.347656-131.03125 41.902344-28.292968 14.839843-43.5625 44.613281-41.816406 74.460937h-99.632812c4.402343-92.6875 80.804687-165.230469 173.230468-165.230469zm-7.472656-67.488281v52.636719c-45.980469 1.785156-87.992188 19.917968-120.359375 49.851562-25.890625-25.890625-26.152344-26.148437-37.128906-37.125 45.523437-41.691406 98.441406-63.652344 157.488281-65.363281zm-168.179688 75.882813 37.214844 37.214843c-29.726562 32.179688-47.839844 74.136719-49.816406 119.621094h-52.636719c1.980469-58.777344 25.015625-114.078125 65.238281-156.835937zm0 0"/><path d="m291.289062 265.691406c2.375-3.394531 1.550782-8.070312-1.84375-10.445312-3.390624-2.375-8.070312-1.550782-10.445312 1.84375-8.289062 11.847656-25.121094 13.195312-35.210938 3.105468-8.992187-8.992187-8.992187-23.621093 0-32.613281 10.09375-10.09375 26.917969-8.734375 35.210938 3.109375 2.375 3.390625 7.054688 4.214844 10.445312 1.839844 3.394532-2.375 4.21875-7.054688 1.84375-10.445312-13.667968-19.503907-41.429687-21.789063-58.105468-5.109376-14.839844 14.839844-14.839844 38.984376 0 53.824219 16.710937 16.714844 44.480468 14.347657 58.105468-5.109375zm0 0"/></svg>