<?xml version="1.0" encoding="windows-1252"?>
<!-- Generator: Adobe Illustrator 19.0.0, SVG Export Plug-In . SVG Version: 6.00 Build 0)  -->
<svg version="1.1" id="Capa_1" xmlns="http://www.w3.org/2000/svg" xmlns:xlink="http://www.w3.org/1999/xlink" x="0px" y="0px" viewBox="0 0 512 512" style="enable-background:new 0 0 512 512;" xml:space="preserve">
<g>
	<g>
		<path d="M256,0C114.842,0,0,114.842,0,256s114.842,256,256,256s256-114.842,256-256S397.158,0,256,0z M256,494.933    C124.254,494.933,17.067,387.746,17.067,256S124.254,17.067,256,17.067S494.933,124.254,494.933,256S387.746,494.933,256,494.933z    "/>
	</g>
</g>
<g>
	<g>
		<path d="M256,221.867c-18.825,0-34.133,15.309-34.133,34.133c0,18.825,15.309,34.133,34.133,34.133    c18.825,0,34.133-15.309,34.133-34.133C290.133,237.175,274.825,221.867,256,221.867z M256,273.067    c-9.412,0-17.067-7.654-17.067-17.067c0-9.412,7.654-17.067,17.067-17.067c9.412,0,17.067,7.654,17.067,17.067    C273.067,265.412,265.412,273.067,256,273.067z"/>
	</g>
</g>
<g>
	<g>
		<path d="M256,179.2c-4.71,0-8.533,3.814-8.533,8.533V230.4c0,4.719,3.823,8.533,8.533,8.533s8.533-3.814,8.533-8.533v-42.667    C264.533,183.014,260.71,179.2,256,179.2z"/>
	</g>
</g>
<g>
	<g>
		<path d="M315.733,247.467H281.6c-4.71,0-8.533,3.814-8.533,8.533s3.823,8.533,8.533,8.533h34.133c4.71,0,8.533-3.814,8.533-8.533    S320.444,247.467,315.733,247.467z"/>
	</g>
</g>
<g>
	<g>
		<path d="M256,85.333c-14.114,0-25.6,11.486-25.6,25.6v59.733c0,14.114,11.486,25.6,25.6,25.6s25.6-11.486,25.6-25.6v-59.733    C281.6,96.819,270.114,85.333,256,85.333z M264.533,170.667c0,4.71-3.831,8.533-8.533,8.533c-4.702,0-8.533-3.823-8.533-8.533    v-59.733c0-4.71,3.831-8.533,8.533-8.533c4.702,0,8.533,3.823,8.533,8.533V170.667z"/>
	</g>
</g>
<g>
	<g>
		<path d="M366.933,230.4H332.8c-14.114,0-25.6,11.486-25.6,25.6s11.486,25.6,25.6,25.6h34.133c14.114,0,25.6-11.486,25.6-25.6    S381.047,230.4,366.933,230.4z M366.933,264.533H332.8c-4.702,0-8.533-3.823-8.533-8.533s3.831-8.533,8.533-8.533h34.133    c4.702,0,8.533,3.823,8.533,8.533S371.635,264.533,366.933,264.533z"/>
	</g>
</g>
<g>
	<g>
		<path d="M59.733,247.467H42.667c-4.71,0-8.533,3.814-8.533,8.533s3.823,8.533,8.533,8.533h17.067c4.71,0,8.533-3.814,8.533-8.533    S64.444,247.467,59.733,247.467z"/>
	</g>
</g>
<g>
	<g>
		<path d="M469.333,247.467h-17.067c-4.71,0-8.533,3.814-8.533,8.533s3.823,8.533,8.533,8.533h17.067    c4.71,0,8.533-3.814,8.533-8.533S474.044,247.467,469.333,247.467z"/>
	</g>
</g>
<g>
	<g>
		<path d="M256,443.733c-4.71,0-8.533,3.814-8.533,8.533v17.067c0,4.719,3.823,8.533,8.533,8.533s8.533-3.814,8.533-8.533v-17.067    C264.533,447.548,260.71,443.733,256,443.733z"/>
	</g>
</g>
<g>
	<g>
		<path d="M256,34.133c-4.71,0-8.533,3.814-8.533,8.533v17.067c0,4.719,3.823,8.533,8.533,8.533s8.533-3.814,8.533-8.533V42.667    C264.533,37.948,260.71,34.133,256,34.133z"/>
	</g>
</g>
<g>
	<g>
		<path d="M125.5,386.5c-3.337-3.337-8.73-3.337-12.066,0l-8.533,8.533c-3.337,3.337-3.337,8.73,0,12.066    c1.664,1.664,3.849,2.5,6.033,2.5c2.185,0,4.369-0.836,6.033-2.5l8.533-8.533C128.836,395.23,128.836,389.837,125.5,386.5z"/>
	</g>
</g>
<g>
	<g>
		<path d="M407.1,104.9c-3.337-3.337-8.73-3.337-12.066,0l-8.533,8.533c-3.337,3.337-3.337,8.73,0,12.066    c1.664,1.664,3.849,2.5,6.033,2.5c2.185,0,4.369-0.836,6.033-2.5l8.533-8.533C410.436,113.63,410.436,108.237,407.1,104.9z"/>
	</g>
</g>
<g>
	<g>
		<path d="M407.1,395.034l-8.533-8.533c-3.337-3.337-8.73-3.337-12.066,0c-3.337,3.337-3.337,8.73,0,12.066l8.533,8.533    c1.664,1.664,3.849,2.5,6.033,2.5c2.185,0,4.369-0.836,6.033-2.5C410.436,403.763,410.436,398.37,407.1,395.034z"/>
	</g>
</g>
<g>
	<g>
		<path d="M125.5,113.434l-8.533-8.533c-3.337-3.337-8.73-3.337-12.066,0s-3.337,8.73,0,12.066l8.533,8.533    c1.664,1.664,3.849,2.5,6.033,2.5s4.369-0.836,6.033-2.5C128.836,122.163,128.836,116.77,125.5,113.434z"/>
	</g>
</g>
<g>
</g>
<g>
</g>
<g>
</g>
<g>
</g>
<g>
</g>
<g>
</g>
<g>
</g>
<g>
</g>
<g>
</g>
<g>
</g>
<g>
</g>
<g>
</g>
<g>
</g>
<g>
</g>
<g>
</g>
</svg>